<mxfile host="www.draw.io" modified="2020-01-10T03:10:54.504Z" agent="Mozilla/5.0 (Windows NT 10.0; Win64; x64) AppleWebKit/537.36 (KHTML, like Gecko) Chrome/79.0.3945.88 Safari/537.36" etag="o1a74zsl3kHwpvBEHxZG" version="12.5.1" type="github">
  <diagram id="Se-Glehy01dl6wNR-q-G" name="Page-1">
    <mxGraphModel dx="1806" dy="892" grid="1" gridSize="10" guides="1" tooltips="1" connect="1" arrows="1" fold="1" page="1" pageScale="1" pageWidth="827" pageHeight="1169" math="0" shadow="0">
      <root>
        <mxCell id="0"/>
        <mxCell id="1" parent="0"/>
        <mxCell id="zSz_MT18Rk_chLuBf8oq-1" value="Hello world" style="rounded=1;whiteSpace=wrap;html=1;" vertex="1" parent="1">
          <mxGeometry x="280" y="320" width="120" height="60" as="geometry"/>
        </mxCell>
      </root>
    </mxGraphModel>
  </diagram>
</mxfile>
